<svg id="visual" viewBox="0 0 900 600" width="900" height="600" xmlns="http://www.w3.org/2000/svg" xmlns:xlink="http://www.w3.org/1999/xlink" version="1.1"><path d="M0 509L11.5 506.2C23 503.3 46 497.7 69 499C92 500.3 115 508.7 138.2 511.5C161.3 514.3 184.7 511.7 207.8 509C231 506.3 254 503.7 277 504.7C300 505.7 323 510.3 346 512C369 513.7 392 512.3 415.2 511.2C438.3 510 461.7 509 484.8 506.3C508 503.7 531 499.3 554 496.5C577 493.7 600 492.3 623 494.7C646 497 669 503 692.2 504C715.3 505 738.7 501 761.8 500.3C785 499.7 808 502.3 831 502.3C854 502.3 877 499.7 888.5 498.3L900 497L900 601L888.5 601C877 601 854 601 831 601C808 601 785 601 761.8 601C738.7 601 715.3 601 692.2 601C669 601 646 601 623 601C600 601 577 601 554 601C531 601 508 601 484.8 601C461.7 601 438.3 601 415.2 601C392 601 369 601 346 601C323 601 300 601 277 601C254 601 231 601 207.8 601C184.7 601 161.3 601 138.2 601C115 601 92 601 69 601C46 601 23 601 11.5 601L0 601Z" fill="#e3e5eb"></path><path d="M0 515L11.5 518.3C23 521.7 46 528.3 69 529.3C92 530.3 115 525.7 138.2 523.5C161.3 521.3 184.7 521.7 207.8 520.8C231 520 254 518 277 517.2C300 516.3 323 516.7 346 518.8C369 521 392 525 415.2 525.2C438.3 525.3 461.7 521.7 484.8 519.7C508 517.7 531 517.3 554 518.5C577 519.7 600 522.3 623 522.3C646 522.3 669 519.7 692.2 519.7C715.3 519.7 738.7 522.3 761.8 523.5C785 524.7 808 524.3 831 525C854 525.7 877 527.3 888.5 528.2L900 529L900 601L888.5 601C877 601 854 601 831 601C808 601 785 601 761.8 601C738.7 601 715.3 601 692.2 601C669 601 646 601 623 601C600 601 577 601 554 601C531 601 508 601 484.8 601C461.7 601 438.3 601 415.2 601C392 601 369 601 346 601C323 601 300 601 277 601C254 601 231 601 207.8 601C184.7 601 161.3 601 138.2 601C115 601 92 601 69 601C46 601 23 601 11.5 601L0 601Z" fill="#9ca3b4"></path><path d="M0 537L11.5 537.2C23 537.3 46 537.7 69 539.7C92 541.7 115 545.3 138.2 545.5C161.3 545.7 184.7 542.3 207.8 541.5C231 540.7 254 542.3 277 544.7C300 547 323 550 346 551.8C369 553.7 392 554.3 415.2 553C438.3 551.7 461.7 548.3 484.8 549C508 549.7 531 554.3 554 556.2C577 558 600 557 623 557.2C646 557.3 669 558.7 692.2 557.8C715.3 557 738.7 554 761.8 553.5C785 553 808 555 831 553.5C854 552 877 547 888.5 544.5L900 542L900 601L888.5 601C877 601 854 601 831 601C808 601 785 601 761.8 601C738.7 601 715.3 601 692.2 601C669 601 646 601 623 601C600 601 577 601 554 601C531 601 508 601 484.8 601C461.7 601 438.3 601 415.2 601C392 601 369 601 346 601C323 601 300 601 277 601C254 601 231 601 207.8 601C184.7 601 161.3 601 138.2 601C115 601 92 601 69 601C46 601 23 601 11.5 601L0 601Z" fill="#596581"></path><path d="M0 562L11.5 562.7C23 563.3 46 564.7 69 568.2C92 571.7 115 577.3 138.2 578.7C161.3 580 184.7 577 207.8 573.7C231 570.3 254 566.7 277 568C300 569.3 323 575.7 346 575.7C369 575.7 392 569.3 415.2 567.7C438.3 566 461.7 569 484.8 571.3C508 573.7 531 575.3 554 574.5C577 573.7 600 570.3 623 569.5C646 568.7 669 570.3 692.2 569.3C715.3 568.3 738.7 564.7 761.8 564C785 563.3 808 565.7 831 570C854 574.3 877 580.7 888.5 583.8L900 587L900 601L888.5 601C877 601 854 601 831 601C808 601 785 601 761.8 601C738.7 601 715.3 601 692.2 601C669 601 646 601 623 601C600 601 577 601 554 601C531 601 508 601 484.8 601C461.7 601 438.3 601 415.2 601C392 601 369 601 346 601C323 601 300 601 277 601C254 601 231 601 207.8 601C184.7 601 161.3 601 138.2 601C115 601 92 601 69 601C46 601 23 601 11.5 601L0 601Z" fill="#162e50"></path></svg>